<svg xmlns="http://www.w3.org/2000/svg" viewBox="0 0 8 14.01"><defs><style>.cls-1{fill:#070608;}.cls-2{fill:#080709;}</style></defs><title>Asset 23</title><g id="Layer_2" data-name="Layer 2"><g id="Layer_1-2" data-name="Layer 1"><path class="cls-1" d="M4.3,11.35A2.46,2.46,0,0,0,3.06,9.63c-.63-.44-1.36-.82-1.94-1.29C-.89,6.71,0,5,2.13,3.91c.13-.07.26-.13.33,0s.51.24.2.45-.57.34-.81.52C.48,6,.58,7.17,2.08,8.19c.67.45,1.41.84,2,1.33,2,1.63,1,3.32-1,4.42-.17.09-.3.1-.37,0s-.52-.24-.14-.45a4.68,4.68,0,0,0,1.31-1A1.71,1.71,0,0,0,4.3,11.35Z"/><path class="cls-2" d="M4.1,5.74A3.07,3.07,0,0,1,5.45,3.65,9,9,0,0,0,6.81,2.41C7.42,1.65,7.15,1,6,.68,5.46.53,5.58.35,5.67.12S5.83,0,6,0C7.57.44,8.46,1.28,7.75,2.45A4.85,4.85,0,0,1,6.6,3.66a7.43,7.43,0,0,0-1.06.93c-.92,1.14-.69,2,.84,2.78.45.23.28.37.09.59s-.16.12-.3,0C5,7.45,4.14,6.73,4.1,5.74Z"/></g></g></svg>