<svg xmlns="http://www.w3.org/2000/svg" viewBox="0 0 14 14"><defs><style>.cls-1{fill:#333;}.cls-2{fill:#070608;}.cls-3{fill:gray;}.cls-4{fill:#e6e6e6;}</style></defs><title>Asset 22</title><g id="Layer_2" data-name="Layer 2"><g id="Layer_1-2" data-name="Layer 1"><path class="cls-1" d="M7,0A7,7,0,0,0,2.05,2.05L7,7Z"/><path class="cls-1" d="M12,2.05A7,7,0,0,0,7,0V7Z"/><path class="cls-2" d="M2.05,2.05A7,7,0,0,0,0,7H7Z"/><path class="cls-3" d="M14,7A7,7,0,0,0,12,2.05L7,7Z"/><path class="cls-4" d="M7,14A7,7,0,0,0,12,12L7,7Z"/><path class="cls-3" d="M14,7H7L12,12A7,7,0,0,0,14,7Z"/><path class="cls-4" d="M2.05,12A7,7,0,0,0,7,14V7Z"/><path class="cls-2" d="M0,7A7,7,0,0,0,2.05,12L7,7Z"/></g></g></svg>