<svg xmlns="http://www.w3.org/2000/svg" viewBox="0 0 14 12.79"><defs><style>.cls-1{fill:#1a1a1a;}.cls-2{fill:#fff;}</style></defs><title>Asset 24</title><g id="Layer_2" data-name="Layer 2"><g id="Layer_1-2" data-name="Layer 1"><path class="cls-1" d="M6.4,0A6.42,6.42,0,0,0,1.87,1.87L6.4,6.4Z"/><path class="cls-1" d="M10.92,1.87A6.41,6.41,0,0,0,6.4,0V6.4Z"/><path class="cls-1" d="M1.87,1.87A6.42,6.42,0,0,0,0,6.4H6.4Z"/><path class="cls-2" d="M12.79,6.4a6.42,6.42,0,0,0-1.87-4.53L6.4,6.4Z"/><path class="cls-1" d="M14,5.79a6.4,6.4,0,0,0-1.87-4.52L7.6,5.79Z"/><path class="cls-1" d="M6.4,12.79a6.41,6.41,0,0,0,4.52-1.87L6.4,6.4Z"/><path class="cls-1" d="M12.79,6.4H6.4l4.52,4.52A6.41,6.41,0,0,0,12.79,6.4Z"/><path class="cls-1" d="M1.87,10.92A6.42,6.42,0,0,0,6.4,12.79V6.4Z"/><path class="cls-1" d="M0,6.4a6.41,6.41,0,0,0,1.87,4.52L6.4,6.4Z"/></g></g></svg>