<svg xmlns="http://www.w3.org/2000/svg" viewBox="0 0 8 10.61"><defs><style>.cls-1{fill:#051325;}</style></defs><title>Asset 20</title><g id="Layer_2" data-name="Layer 2"><g id="Layer_1-2" data-name="Layer 1"><path class="cls-1" d="M4,0H7.37A.59.59,0,0,1,8,.5,1.76,1.76,0,0,1,8,.9C7.87,1.93,7.76,3,7.65,4s-.21,2.07-.32,3.1-.19,1.8-.28,2.7A.2.2,0,0,1,7,9.91a2,2,0,0,1-.82.43,8.29,8.29,0,0,1-2.62.26,7.43,7.43,0,0,1-1.33-.16A2.94,2.94,0,0,1,1.1,10a.42.42,0,0,1-.17-.31C.83,8.62.72,7.56.61,6.5L.31,3.6C.21,2.63.11,1.67,0,.7A.6.6,0,0,1,.64,0ZM4,.87H1.57A.58.58,0,0,0,1,1.48C1,1.65,1,1.82,1,2l.24,2.3L1.5,6.58c.09.9.19,1.8.28,2.7a.15.15,0,0,0,.11.15,4.56,4.56,0,0,0,1.27.26,9,9,0,0,0,2,0,3.63,3.63,0,0,0,1-.24.1.1,0,0,0,.08-.08c.08-.86.17-1.72.26-2.57s.17-1.67.26-2.5S6.91,2.59,7,1.75a1.7,1.7,0,0,0,0-.39A.6.6,0,0,0,6.39.87Z"/><path class="cls-1" d="M2.6,3.62c.69,0,1.42.13,2.15.2a5.35,5.35,0,0,0,1.13,0C6,3.85,6,3.88,6,4c0,.39-.08.79-.11,1.18L5.68,7,5.53,8.64s0,.08-.07.09A4.46,4.46,0,0,1,3,8.87c-.42-.11-.42-.12-.45-.55-.06-.71-.13-1.41-.2-2.12S2.21,5,2.16,4.35c0-.22,0-.43-.07-.65s0-.09.08-.09Z"/></g></g></svg>