<svg xmlns="http://www.w3.org/2000/svg" viewBox="0 0 12.65 53.51"><title>Asset 25</title><g id="Layer_2" data-name="Layer 2"><g id="Layer_1-2" data-name="Layer 1"><path d="M7,20a5.36,5.36,0,0,0-6,5.3v25.3A5.13,5.13,0,0,0,1.17,52a.75.75,0,0,0,.73.52h8.72a.94.94,0,0,0,.91-.72,5.43,5.43,0,0,0,.14-1.22v-25A5.52,5.52,0,0,0,7,20Z"/><path d="M4.74,4.62V19.18A6.4,6.4,0,0,1,6.32,19a7.34,7.34,0,0,1,.81.05,4.78,4.78,0,0,1,.77.16V4.62Z"/><rect x="4.74" y="0.97" width="3.16" height="2.68"/><path d="M4.74,4.62H4.26v-1h.48V1H7.9V3.65h.49v1H7.9V19.18a6.29,6.29,0,0,1,1,.34V0H3.77V19.52a6.56,6.56,0,0,1,1-.34Z"/><rect x="4.74" y="3.65" width="3.16" height="0.97"/><rect x="4.26" y="3.65" width="0.49" height="0.97"/><rect x="7.9" y="3.65" width="0.49" height="0.97"/><path d="M8.88,19.52v.59h-1v-.93A4.78,4.78,0,0,0,7.13,19,7.34,7.34,0,0,0,6.32,19a6.4,6.4,0,0,0-1.58.21v.93h-1v-.59A6.33,6.33,0,0,0,0,25.29v25.3a6.32,6.32,0,0,0,.23,1.69A1.73,1.73,0,0,0,1.9,53.51h8.72A1.92,1.92,0,0,0,12.48,52a6.17,6.17,0,0,0,.17-1.44h-1a5.43,5.43,0,0,1-.14,1.22.94.94,0,0,1-.91.72H1.9A.75.75,0,0,1,1.17,52,5.13,5.13,0,0,1,1,50.59V25.29A5.31,5.31,0,0,1,7,20a5.52,5.52,0,0,1,4.66,5.56v25h1v-25A6.65,6.65,0,0,0,8.88,19.52Z"/><path d="M7.9,20.11h1v-.59a6.29,6.29,0,0,0-1-.34Z"/><path d="M4.74,20.11v-.93a6.56,6.56,0,0,0-1,.34v.59Z"/></g></g></svg>